<svg width="50" height="50" version="1.1" viewBox="0 0 13.23 13.23" xmlns="http://www.w3.org/2000/svg">
 <g stroke="#000">
  <g fill="#fff">
   <path d="m9.785 1.323v-0.7777" stroke-linecap="round" stroke-linejoin="round" stroke-width=".5292"/>
   <path d="m9.79 6.818v-0.7327" stroke-linecap="round" stroke-linejoin="round" stroke-width=".5292"/>
   <path d="m9.179 2.381h1.222l0.7127 0.7123v1.221l-0.7127 0.7123h-1.222l-0.7127-0.7123v-1.221z" stroke-linecap="square" stroke-width=".5292"/>
   <g stroke-linecap="round" stroke-linejoin="round" stroke-width=".5292">
    <path d="m11.51 1.984 0.5244-0.5241"/>
    <path d="m12.17 3.704h0.7936"/>
    <path d="m6.615 3.704h0.7936"/>
    <path d="m11.51 5.424 0.5244 0.5241"/>
    <path d="m8.07 1.984-0.5244-0.5241"/>
   </g>
  </g>
  <g transform="translate(0 2.117)" stroke-linecap="round" stroke-linejoin="round">
   <path d="m10.72 10.45 1.323-1.323v-1.058l-1.058-1.058-2.646-1.323-1.058-2.117-0.7938-0.7938-2.381 1e-7 -0.5292 0.5292-0.7938 1.587-1.058 0.5292-1.058 1.058 2e-7 2.646 1.323 1.323z" fill="#fff" stroke-width=".7938"/>
   <path d="m8.599 5.953-1.587-0.7938-2.117 1.058-0.3969 0.7937" fill="none" stroke-width=".5292"/>
  </g>
 </g>
</svg>
