<svg width="50" height="50" version="1.1" viewBox="0 0 13.23 13.23" xmlns="http://www.w3.org/2000/svg">
 <g stroke="#000" stroke-linecap="round" stroke-linejoin="round">
  <g transform="translate(.2646 -2.381)">
   <path d="m10.72 10.45 1.323-1.323v-1.058l-1.058-1.058-2.646-1.323-1.058-2.117-0.7938-0.7938-2.381 1e-7 -0.5292 0.5292-0.7938 1.587-1.058 0.5292-1.058 1.058 2e-7 2.646 1.323 1.323z" fill="#fff" stroke-width=".7938"/>
   <path d="m8.599 5.953-1.587-0.7938-2.117 1.058-0.3969 0.7937" fill="none" stroke-width=".5292"/>
  </g>
  <g fill="#fff" stroke-width=".5292">
   <line class="cls-2" x1="2.646" x2="2.646" y1="10.05" y2="8.996"/>
   <line class="cls-2" x1="7.144" x2="8.202" y1="9.525" y2="9.525"/>
   <line class="cls-2" x1="7.673" x2="7.673" y1="10.05" y2="8.996"/>
   <line class="cls-2" x1="7.673" x2="7.673" y1="12.7" y2="11.64"/>
   <line class="cls-2" x1="5.292" x2="5.292" y1="11.11" y2="10.05"/>
   <line class="cls-2" x1="2.117" x2="3.175" y1="12.44" y2="12.44"/>
   <line class="cls-2" x1="2.646" x2="2.646" y1="12.96" y2="11.91"/>
   <line class="cls-2" x1="9.525" x2="10.58" y1="10.58" y2="10.58"/>
   <line class="cls-2" x1="10.05" x2="10.05" y1="11.11" y2="10.05"/>
  </g>
 </g>
</svg>
